<?xml version="1.0" standalone="no"?><svg xmlns="http://www.w3.org/2000/svg" viewBox="0 0 1440 320"><path fill="#352F44" fill-opacity="1" d="M0,128L40,122.7C80,117,160,107,240,101.3C320,96,400,96,480,117.3C560,139,640,181,720,202.7C800,224,880,224,960,192C1040,160,1120,96,1200,74.7C1280,53,1360,75,1400,85.3L1440,96L1440,320L1400,320C1360,320,1280,320,1200,320C1120,320,1040,320,960,320C880,320,800,320,720,320C640,320,560,320,480,320C400,320,320,320,240,320C160,320,80,320,40,320L0,320Z"></path></svg>